<svg xmlns="http://www.w3.org/2000/svg" xmlns:xlink="http://www.w3.org/1999/xlink" width="40" height="40" viewBox="0 0 40 40">
  <defs>
    <clipPath id="clip-path">
      <rect width="40" height="40" fill="none"/>
    </clipPath>
  </defs>
  <g id="ic_play" clip-path="url(#clip-path)">
    <g id="Ellipse_9" data-name="Ellipse 9" fill="#ebebeb" stroke="#171717" stroke-width="2">
      <circle cx="20" cy="20" r="20" stroke="none"/>
      <circle cx="20" cy="20" r="19" fill="none"/>
    </g>
    <circle id="Ellipse_8" data-name="Ellipse 8" cx="16.5" cy="16.5" r="16.5" transform="translate(3 4)" fill="#fff"/>
    <g id="Polygon_1" data-name="Polygon 1" transform="translate(34.5 7.5) rotate(90)" fill="#1abc9c" stroke-linecap="round" stroke-linejoin="round">
      <path d="M 18.81940078735352 19.99999809265137 L 7.180610179901123 19.99999809265137 C 6.07673978805542 19.99999809265137 5.097000122070313 19.42426681518555 4.559800148010254 18.45992660522461 C 4.02262020111084 17.49558639526367 4.048789978027344 16.35951805114746 4.629809856414795 15.42094707489014 L 10.44921016693115 6.02036714553833 C 10.99996662139893 5.13068151473999 11.95361518859863 4.599447250366211 12.99997043609619 4.599447250366211 C 13.00003433227539 4.599447250366211 12.9999361038208 4.599447250366211 13 4.599447250366211 C 14.04642963409424 4.599437236785889 15 5.130627155303955 15.55080032348633 6.020377159118652 L 21.37018966674805 15.42093753814697 C 21.95121955871582 16.35951805114746 21.97739028930664 17.49558639526367 21.44020080566406 18.45992660522461 C 20.90299987792969 19.42426681518555 19.92326927185059 19.99999809265137 18.81940078735352 19.99999809265137 Z" stroke="none"/>
      <path d="M 13 5.599437713623047 C 12.66501998901367 5.599437713623047 11.82874965667725 5.691738128662109 11.29946994781494 6.546728134155273 L 5.480070114135742 15.94729709625244 C 4.921749114990234 16.84920692443848 5.261440277099609 17.66458702087402 5.433399200439453 17.97328758239746 C 5.605369567871094 18.28198623657227 6.11985969543457 18.99999618530273 7.180599212646484 18.99999618530273 L 18.81938934326172 18.99999618530273 C 19.88014030456543 18.99999618530273 20.39463043212891 18.28198623657227 20.56660079956055 17.97328758239746 C 20.73855972290039 17.66458702087402 21.07825088500977 16.84920692443848 20.51992988586426 15.94729709625244 L 14.70053005218506 6.546728134155273 C 14.17125034332275 5.691738128662109 13.33498001098633 5.599437713623047 13 5.599437713623047 M 13 3.599441528320313 C 14.30958461761475 3.599441528320313 15.61917018890381 4.230966567993164 16.40106010437012 5.494016647338867 L 22.220458984375 14.89458751678467 C 23.87006950378418 17.55934715270996 21.95343017578125 20.99999809265137 18.81938934326172 20.99999809265137 L 7.180599212646484 20.99999809265137 C 4.04656982421875 20.99999809265137 2.12993049621582 17.55934715270996 3.779539108276367 14.89458751678467 L 9.598939895629883 5.494016647338867 C 10.38082981109619 4.230966567993164 11.69041538238525 3.599441528320313 13 3.599441528320313 Z" stroke="none" fill="#171717"/>
    </g>
  </g>
</svg>
